<svg width="60" height="60" viewBox="0 0 60 60" fill="none" xmlns="http://www.w3.org/2000/svg">
<g clip-path="url(#clip0_1_2)">
<path d="M46.1538 0H13.8462C6.19915 0 0 6.19915 0 13.8462V46.1538C0 53.8008 6.19915 60 13.8462 60H46.1538C53.8008 60 60 53.8008 60 46.1538V13.8462C60 6.19915 53.8008 0 46.1538 0Z" fill="url(#paint0_linear_1_2)"/>
<path d="M44.7115 3.75H15.2885C8.91596 3.75 3.75 8.91596 3.75 15.2885V44.7115C3.75 51.084 8.91596 56.25 15.2885 56.25H44.7115C51.084 56.25 56.25 51.084 56.25 44.7115V15.2885C56.25 8.91596 51.084 3.75 44.7115 3.75Z" stroke="white" stroke-width="0.692308"/>
<path d="M34.6511 29.3487L36.7635 27.1555C38.2896 27.7846 40.012 27.7455 41.5138 27.0382C41.8825 26.8646 41.9707 26.362 41.6844 26.0647L37.9226 22.1591C37.4656 21.6846 37.4656 20.9152 37.9226 20.4407L41.6805 16.5391C41.9686 16.2399 41.88 15.7335 41.5087 15.5591C39.2739 14.5093 36.5522 14.9379 34.7152 16.8451C32.9898 18.6364 32.5252 21.2568 33.3209 23.495L31.1669 25.7313L34.6511 29.3487Z" fill="white"/>
<path d="M30.615 26.3044L27.6957 23.2736L24.2116 26.891L27.1308 29.9218L30.6149 33.5392L41.2878 44.6201C41.4402 44.7784 41.64 44.8575 41.8397 44.8575C42.0395 44.8575 42.2392 44.7784 42.3917 44.6201L44.7719 42.1489C45.0767 41.8324 45.0767 41.3193 44.7719 41.0028L34.0991 29.9218L30.615 26.3044Z" fill="white"/>
<path d="M43.2616 18.5791L40.1407 21.8194C39.8912 22.0784 39.8912 22.4985 40.1407 22.7575L42.5461 25.2549C42.8146 25.5337 43.2594 25.5114 43.4952 25.2024C44.907 23.3518 45.1742 20.8683 44.297 18.778C44.118 18.3515 43.5784 18.2501 43.2616 18.5791Z" fill="white"/>
<path d="M19.363 33.9352L23.1247 37.8408C23.5818 38.3153 23.5818 39.0847 23.1247 39.5592L19.3669 43.4608C19.0787 43.76 19.1673 44.2664 19.5386 44.4408C21.7734 45.4906 24.4951 45.0621 26.3322 43.1548C28.0514 41.3699 28.5187 38.7619 27.7349 36.5291L30.0623 34.1127L26.5782 30.4954L24.3065 32.8539C22.7748 32.2151 21.0429 32.2509 19.5337 32.9617C19.1649 33.1353 19.0767 33.638 19.363 33.9352Z" fill="white"/>
<path d="M17.5529 34.8625C16.1411 36.713 15.8739 39.1965 16.7511 41.2868C16.93 41.7133 17.4696 41.8147 17.7865 41.4857L20.9074 38.2455C21.1569 37.9864 21.1569 37.5664 20.9074 37.3073L18.502 34.81C18.2335 34.5312 17.7887 34.5534 17.5529 34.8625Z" fill="white"/>
<path d="M19.3391 29.398C19.7127 29.7859 20.3184 29.7859 20.6921 29.398L20.8724 29.2107C21.2461 28.8228 21.2461 28.1939 20.8724 27.806L20.5117 27.4315L21.222 26.694L17.8847 23.229L17.1744 23.9665L16.8136 23.5919C16.44 23.204 15.8342 23.204 15.4606 23.5919L15.2802 23.7792C14.9066 24.1671 14.9066 24.796 15.2802 25.1839L19.3391 29.398Z" fill="white"/>
<path d="M24.5013 16.5672L27.7968 19.9888C31.5964 17.3604 33.7202 19.5651 30.7993 16.5325C28.7793 14.4352 26.2285 15.4275 24.5013 16.5672Z" fill="white"/>
<path d="M23.4881 16.6615C23.3013 16.4676 23.0565 16.3706 22.8117 16.3706C22.5668 16.3706 22.322 16.4676 22.1352 16.6615L18.0762 20.8757C17.7026 21.2636 17.7026 21.8925 18.0762 22.2804L18.437 22.655L21.7743 26.1199L22.1351 26.4945C22.3219 26.6885 22.5668 26.7854 22.8116 26.7854C22.8708 26.7854 22.93 26.7796 22.9883 26.7683C23.125 26.7418 23.2572 26.6842 23.3743 26.5956C23.4141 26.5654 23.4522 26.5318 23.4881 26.4946L23.6588 26.3173L27.1429 22.7L27.4191 22.4132L27.547 22.2804C27.598 22.2275 27.6417 22.17 27.6788 22.1093C27.9134 21.7253 27.8696 21.2107 27.547 20.8757L27.1542 20.4678L23.8451 17.0322L23.4881 16.6615Z" fill="white"/>
</g>
<defs>
<linearGradient id="paint0_linear_1_2" x1="30" y1="0" x2="30" y2="60" gradientUnits="userSpaceOnUse">
<stop stop-color="#58C2FE"/>
<stop offset="0.926871" stop-color="#235CE7"/>
</linearGradient>
<clipPath id="clip0_1_2">
<rect width="60" height="60" fill="white"/>
</clipPath>
</defs>
</svg>
