<?xml version="1.0" encoding="utf-8"?>
<!DOCTYPE svg PUBLIC "-//W3C//DTD SVG 1.1//EN" "http://www.w3.org/Graphics/SVG/1.1/DTD/svg11.dtd">
<svg height="800px" width="800px" version="1.1" xmlns="http://www.w3.org/2000/svg"
     xmlns:xlink="http://www.w3.org/1999/xlink"
     viewBox="0 0 512 512" xml:space="preserve">
<g>
	<path fill="#FFF" d="M464,32H48C21.492,32,0,53.492,0,80v352c0,26.508,21.492,48,48,48h416c26.508,0,48-21.492,48-48V80
		C512,53.492,490.508,32,464,32z M444.664,67c10.492,0,19,8.508,19,19s-8.508,19-19,19s-19-8.508-19-19S434.172,67,444.664,67z
		 M374.164,67c10.492,0,19,8.508,19,19s-8.508,19-19,19s-19-8.508-19-19S363.672,67,374.164,67z M303.664,67
		c10.492,0,19,8.508,19,19s-8.508,19-19,19s-19-8.508-19-19S293.172,67,303.664,67z M472,432c0,4.406-3.586,8-8,8H48
		c-4.414,0-8-3.594-8-8V136h432V432z"/>
  <path fill="#FFF" d="M97.477,326.656h16.031c0.977,0,1.625-0.633,1.93-1.562l13.774-44h0.336l13.43,44
		c0.328,0.93,0.984,1.562,1.945,1.562h16.188c0.984,0,1.633-0.633,1.938-1.562l25.117-72.656c0.313-0.93-0.187-1.562-1.305-1.562
		h-19.913c-1.149,0-1.79,0.484-2.102,1.562l-12.313,45.094h-0.312l-13.766-45.094c-0.336-1.078-0.977-1.562-2.11-1.562h-13.602
		c-1.14,0-1.954,0.484-2.258,1.562l-13.454,45.094h-0.328l-12.946-45.094c-0.328-1.078-0.953-1.562-2.266-1.562H71.586
		c-0.992,0-1.454,0.633-1.157,1.562l25.118,72.656C95.867,326.023,96.516,326.656,97.477,326.656z"/>
  <path fill="#FFF" d="M224.078,326.656h16.054c0.961,0,1.618-0.633,1.93-1.562l13.766-44h0.328l13.43,44
		c0.336,0.93,0.984,1.562,1.953,1.562h16.18c0.984,0,1.625-0.633,1.953-1.562l25.102-72.656c0.313-0.93-0.172-1.562-1.297-1.562
		H293.57c-1.156,0-1.805,0.484-2.117,1.562l-12.313,45.094h-0.32l-13.758-45.094c-0.336-1.078-0.976-1.562-2.102-1.562h-13.609
		c-1.133,0-1.946,0.484-2.258,1.562l-13.445,45.094h-0.321l-12.961-45.094c-0.313-1.078-0.969-1.562-2.258-1.562h-19.914
		c-0.992,0-1.469,0.633-1.133,1.562l25.094,72.656C222.477,326.023,223.125,326.656,224.078,326.656z"/>
  <path fill="#FFF" d="M350.875,326.656h16.047c0.953,0,1.601-0.633,1.922-1.562l13.766-44h0.336l13.429,44
		c0.328,0.93,0.969,1.562,1.938,1.562h16.195c0.977,0,1.625-0.633,1.946-1.562l25.117-72.656c0.297-0.93-0.187-1.562-1.296-1.562
		h-19.938c-1.133,0-1.782,0.484-2.094,1.562l-12.304,45.094h-0.32l-13.766-45.094c-0.336-1.078-0.977-1.562-2.102-1.562h-13.618
		c-1.133,0-1.938,0.484-2.25,1.562l-13.462,45.094h-0.304l-12.954-45.094c-0.336-1.078-0.961-1.562-2.266-1.562h-19.922
		c-0.969,0-1.454,0.633-1.141,1.562l25.118,72.656C349.258,326.023,349.906,326.656,350.875,326.656z"/>
</g>
</svg>
