<?xml version="1.0" encoding="utf-8"?>
<!DOCTYPE svg PUBLIC "-//W3C//DTD SVG 1.1//EN" "http://www.w3.org/Graphics/SVG/1.1/DTD/svg11.dtd">
<svg height="800px" width="800px" version="1.1" xmlns="http://www.w3.org/2000/svg"
     xmlns:xlink="http://www.w3.org/1999/xlink"
     viewBox="0 0 512 512" xml:space="preserve">
<g>
	<path fill="#FFF" d="M256,80.172c-0.482,0-0.951,0.021-1.426,0.021c0.462-1.202,0.895-2.42,1.28-3.657
		c1.727-5.552,2.657-11.468,2.657-17.538c0-8.105-1.657-15.902-4.65-22.971c-4.482-10.608-11.944-19.587-21.356-25.936
		c-4.699-3.189-9.902-5.706-15.461-7.441C211.491,0.93,205.576,0,199.506,0c-8.09,0-15.894,1.65-22.97,4.643
		c-10.608,4.49-19.58,11.951-25.936,21.356c-3.175,4.706-5.706,9.902-7.426,15.46c-1.734,5.546-2.665,11.468-2.665,17.538
		c0,8.097,1.658,15.908,4.643,22.964c3.378,7.986,8.441,15.034,14.74,20.748C88.881,138.071,40.086,211.383,40.086,296.093
		C40.086,415.332,136.753,512,256,512s215.914-96.668,215.914-215.907C471.914,176.839,375.247,80.172,256,80.172z M176.723,49.376
		c1.853-4.412,5.021-8.223,8.972-10.895c1.978-1.321,4.146-2.384,6.454-3.105c2.308-0.713,4.762-1.105,7.356-1.105
		c3.462,0,6.671,0.692,9.615,1.944c4.426,1.86,8.23,5.021,10.902,8.972c1.336,1.979,2.392,4.147,3.105,6.454
		c0.713,2.308,1.105,4.762,1.105,7.357c0,3.461-0.692,6.671-1.937,9.614c-1.867,4.42-5.021,8.231-8.972,10.888
		c-1.979,1.35-4.147,2.392-6.454,3.119c-2.315,0.706-4.762,1.09-7.364,1.09c-3.454,0-6.664-0.678-9.608-1.922
		c-4.426-1.86-8.23-5.028-10.902-8.986c-1.328-1.972-2.392-4.14-3.098-6.447c-0.72-2.314-1.112-4.762-1.112-7.356
		C174.787,55.536,175.479,52.326,176.723,49.376z M409.497,375.67l-13.894-8.028l-7.839,13.58l13.881,8
		c-6.672,10.384-14.496,20.139-23.44,29.075c-8.93,8.936-18.685,16.762-29.069,23.44l-8.013-13.874l-13.566,7.832l8.014,13.887
		c-22.02,11.454-46.382,18.028-71.738,19.147v-15.957h-15.657v15.957c-25.356-1.119-49.725-7.693-71.752-19.147l8.028-13.887
		l-13.573-7.832l-8.006,13.874c-10.391-6.678-20.139-14.503-29.076-23.44c-8.944-8.936-16.762-18.692-23.439-29.075l13.88-8
		l-7.846-13.58l-13.887,8.028c-11.447-22.034-18.027-46.397-19.146-71.746h15.965v-15.677H83.357
		c1.119-25.342,7.699-49.697,19.146-71.732l13.887,8.02l7.846-13.573l-13.88-8.006c6.678-10.392,14.496-20.139,23.439-29.069
		c8.937-8.937,18.685-16.768,29.076-23.446l8.006,13.88l13.573-7.831l-8.028-13.902c22.027-11.447,46.397-18.013,71.752-19.146
		v15.964h15.657v-15.964c25.356,1.133,49.718,7.699,71.738,19.146l-8.014,13.902l13.566,7.831l8.013-13.88
		c10.384,6.678,20.139,14.51,29.069,23.446c8.944,8.93,16.768,18.678,23.44,29.069l-13.881,8.006l7.839,13.573l13.894-8.02
		c11.448,22.034,18.027,46.39,19.146,71.732h-15.964v15.677h15.964C427.525,329.274,420.945,353.636,409.497,375.67z"/>
  <path fill="#FFF" d="M312.781,265.01l61.082-81.864c0.804-1.077,0.448-2.839-0.811-4.105c-1.259-1.265-3.034-1.615-4.105-0.811
		l-81.863,61.082c-6.65-3.65-14.006-6.167-21.81-7.286L256,171.762l-9.265,60.27c-12.007,1.714-22.943,6.72-31.88,14.084
		l-26.474-17.643l17.65,26.467c-7.363,8.93-12.37,19.881-14.09,31.88l-60.263,9.272l60.263,9.265
		c1.119,7.804,3.629,15.16,7.272,21.81l-61.081,81.864c-0.79,1.076-0.44,2.846,0.825,4.104c1.266,1.272,3.028,1.615,4.105,0.818
		l81.864-61.089c6.643,3.65,14,6.161,21.81,7.287L256,420.402l9.272-60.249c12.006-1.727,22.95-6.728,31.88-14.084l26.468,17.643
		l-17.65-26.474c7.37-8.93,12.37-19.866,14.097-31.88l60.256-9.265l-60.256-9.272C318.942,279.01,316.431,271.66,312.781,265.01z
		 M208.135,315.211c-2.37-5.909-3.685-12.362-3.685-19.118c0-28.474,23.083-51.55,51.55-51.55c6.762,0,13.216,1.315,19.125,3.678
		l-38.138,28.461c-0.147,0.112-0.28,0.244-0.392,0.391L208.135,315.211z M256,347.643c-6.755,0-13.209-1.315-19.125-3.685
		l38.138-28.46c0.154-0.119,0.28-0.245,0.399-0.399l28.46-38.138c2.356,5.916,3.671,12.37,3.671,19.132
		C307.543,324.56,284.475,347.643,256,347.643z"/>
</g>
</svg>
