<?xml version="1.0" encoding="utf-8"?>
<svg fill="#000000" width="800px" height="800px" viewBox="0 0 32 32" version="1.1" xmlns="http://www.w3.org/2000/svg">
<path d="M30.658 5.937c-0.187-0.117-0.414-0.186-0.658-0.186-0.204 0-0.396 0.048-0.566 0.135l0.007-0.003-6.351 3.174c-0.414-1.342-1.641-2.302-3.093-2.307h-15.997c-1.794 0.002-3.248 1.456-3.25 3.25v12.001c0.002 1.794 1.456 3.248 3.25 3.25h15.996c1.453-0.005 2.68-0.964 3.088-2.284l0.006-0.023 6.351 3.174c0.161 0.084 0.352 0.133 0.555 0.133 0.001 0 0.003 0 0.004 0h-0c0.69-0 1.25-0.56 1.25-1.25v-18c-0-0.447-0.234-0.839-0.587-1.060l-0.005-0.003zM20.746 22c-0 0.414-0.336 0.75-0.75 0.75h-15.996c-0.414-0-0.75-0.336-0.75-0.75v-12.001c0.001-0.414 0.336-0.749 0.75-0.75h15.996c0.414 0 0.75 0.336 0.75 0.75v12.001zM28.75 22.979l-5.504-2.752v-8.454l5.504-2.75z"></path>
</svg>